<?xml version="1.0" encoding="UTF-8" standalone="no"?>
<svg
   width="200"
   height="200"
   viewBox="0 0 200 200"
   version="1.1"
   id="svg1"
   xmlns="http://www.w3.org/2000/svg"
   xmlns:svg="http://www.w3.org/2000/svg"
   xmlns:rdf="http://www.w3.org/1999/02/22-rdf-syntax-ns#"
   xmlns:cc="http://creativecommons.org/ns#"
   xmlns:dc="http://purl.org/dc/elements/1.1/">
  <defs
     id="defs1" />
  <title
     id="title1">Logomark</title>
  <path
     d="m 194.89871,48.999628 a 3.0899844,2.9614138 0 0 1 0.10695,0.765062 v 40.163945 a 3.0556088,2.9284685 0 0 1 -1.53544,2.540447 l -35.17388,19.408428 v 38.46909 c 0,1.04693 -0.58057,2.01333 -1.5278,2.54045 l -73.42246,40.50804 c -0.168059,0.0915 -0.351395,0.15008 -0.534732,0.21231 -0.06875,0.022 -0.133682,0.0622 -0.206253,0.0805 a 3.0747064,2.9467714 0 0 1 -1.566,0 c -0.08403,-0.022 -0.160419,-0.0659 -0.240629,-0.0952 -0.168058,-0.0586 -0.343756,-0.10982 -0.504175,-0.19767 L 6.8871083,152.88705 A 3.0594283,2.9321291 0 0 1 5.3516649,150.3466 V 29.854765 c 0,-0.263562 0.038195,-0.519803 0.1069463,-0.768723 0.022917,-0.08419 0.07639,-0.161066 0.1069463,-0.245259 0.057293,-0.153745 0.1107658,-0.31115 0.1947951,-0.453913 0.057293,-0.09517 0.1413219,-0.172048 0.2100731,-0.259902 0.087849,-0.117138 0.1680584,-0.237938 0.2711852,-0.340434 0.087849,-0.08419 0.2024342,-0.146424 0.3017414,-0.219635 0.1107659,-0.08785 0.2100731,-0.18303 0.336117,-0.252581 h 0.00382 L 43.58879,7.0602982 a 3.0632478,2.9357897 0 0 1 3.055609,0 l 36.7055,20.2540198 h 0.0076 c 0.122225,0.07321 0.225352,0.164727 0.336117,0.24892 0.09931,0.07321 0.210074,0.139102 0.297922,0.219635 0.106947,0.106157 0.183337,0.226957 0.275005,0.344095 0.06493,0.08785 0.152781,0.164727 0.206254,0.259902 0.08785,0.146423 0.137502,0.300168 0.198614,0.453913 0.03056,0.08419 0.08403,0.161065 0.106947,0.248919 a 3.0899844,2.9614138 0 0 1 0.106946,0.765063 V 105.11275 L 115.47194,88.233784 V 49.761029 c 0,-0.256241 0.0382,-0.516142 0.10695,-0.761401 0.0267,-0.08785 0.0764,-0.164727 0.10694,-0.24892 0.0611,-0.153745 0.11459,-0.31115 0.19862,-0.453913 0.0573,-0.09517 0.14132,-0.172047 0.20625,-0.259901 0.0917,-0.117139 0.16806,-0.237939 0.27501,-0.340435 0.0879,-0.08419 0.19861,-0.146423 0.29792,-0.219635 0.11458,-0.08785 0.21389,-0.183029 0.33612,-0.25258 h 0.004 l 36.70932,-20.254021 a 3.0594283,2.9321291 0 0 1 3.05561,0 l 36.7055,20.254021 c 0.12986,0.07321 0.22917,0.164726 0.34375,0.248919 0.0955,0.07321 0.20626,0.139103 0.2941,0.219636 0.10695,0.106156 0.18334,0.226956 0.27501,0.344095 0.0688,0.08785 0.15278,0.164726 0.20625,0.259901 0.0879,0.142763 0.13751,0.300168 0.19862,0.453913 0.0344,0.08419 0.084,0.161066 0.10694,0.24892 z M 188.8868,88.233784 V 54.834601 l -12.84501,7.086894 -17.74545,9.792066 v 33.399179 l 30.59428,-16.878956 z m -36.7055,60.417966 v -33.42114 l -17.45516,9.55412 -49.844617,27.26405 v 33.73595 z M 11.470521,34.924676 V 148.65175 l 67.292146,37.12932 v -33.72863 l -35.15478,-19.06799 -0.01146,-0.007 -0.01528,-0.007 c -0.118405,-0.0659 -0.217712,-0.16106 -0.328478,-0.2416 -0.09549,-0.0732 -0.206254,-0.13178 -0.290283,-0.21231 l -0.0076,-0.011 c -0.09931,-0.0915 -0.168059,-0.20499 -0.252088,-0.30749 -0.07639,-0.0988 -0.168058,-0.18303 -0.22917,-0.28553 l -0.0038,-0.011 c -0.06875,-0.10982 -0.110766,-0.2416 -0.160419,-0.36606 -0.04965,-0.10981 -0.114586,-0.21231 -0.145142,-0.32945 v -0.004 c -0.0382,-0.1391 -0.04583,-0.28553 -0.06111,-0.42829 -0.01528,-0.10982 -0.04583,-0.21963 -0.04583,-0.32945 v -0.007 -78.633044 L 24.315537,42.007909 11.470521,34.928336 Z M 45.120414,12.983126 14.537589,29.854765 45.112775,46.726404 75.69178,29.851104 45.112775,12.983126 Z m 15.904444,105.293084 17.741628,-9.7884 V 34.924676 L 65.921471,42.01157 48.176023,51.803636 v 73.563134 z m 94.215872,-85.383159 -30.579,16.871639 30.579,16.871639 30.57519,-16.8753 z m -3.05943,38.82051 -17.74545,-9.792066 -12.84501,-7.086894 v 33.399183 l 17.74163,9.788406 12.84883,7.09055 z M 81.818276,146.97886 126.67079,122.4383 149.09132,110.17534 118.53523,93.314677 83.353719,112.72676 51.288924,130.41837 Z"
     fill="#ff2d20"
     fill-rule="evenodd"
     id="path1"
     style="stroke-width:3.73921" />
  <metadata
     id="metadata1">
    <rdf:RDF>
      <cc:Work
         rdf:about="">
        <dc:title>Logomark</dc:title>
      </cc:Work>
    </rdf:RDF>
  </metadata>
</svg>
